# xmcd
#
# Track frame offsets:
#	182
#	13800
#	28180
#	45702
#	61327
#	75832
#	90912
#	106475
#	117882
#	134585
#	155407
#	170225
#	185612
#	203692
#	218635
#	231987
#	249447
#	268532
#	287080
#	308622
#
# Disc length: 4430 seconds
#
# Revision: 1
# Processed by: cddbd v1.4PL0 Copyright (c) Steve Scherf et al.
# Submitted via: audiograbber 1.81.03
#
DISCID=12114c14
DTITLE=Various Artist - Les plus grandes voix du Jazz
DYEAR=1900
DGENRE=
TTITLE0=Louis Armstrong - Do you know what it means to miss New Orleans
TTITLE1=Billie Holiday with Artie Shaw Orchestra - Any Old Time
TTITLE2=Fats Waller - Ain't misbehavin'
TTITLE3=Mildred Bailey - Georgia on my mind
TTITLE4=Tommy Dorsey Orchestra with Franck Sinatra - Stardust
TTITLE5=Una Mae Carlisle - Blitzkrieg Baby, You can't bomb me
TTITLE6=Cab Calloway - Minnie the Moocher
TTITLE7=Alberta Hunter - My castle's rockin'
TTITLE8=Joe Williams - Everyday
TTITLE9=Helen Humes - Shed no tears
TTITLE10=Roy Eldridge - Une petite laitue
TTITLE11=Lena Horne - People will say we are in love
TTITLE12=Dizzy Gillespie - Cripple crapple Crutch
TTITLE13=Sarah Vaugan with Dizzy Gillespie Orchestra - Embraceable you
TTITLE14=Lambert, Hendricks and Bavan - One o'clock jump
TTITLE15=Jimmy Rushing - More than you know
TTITLE16=Nina Simone - My man's gone now
TTITLE17=Carmen Mc Rae - Misty
TTITLE18=John Pizzarelli - Nuages
TTITLE19=Vanessa Rubin - I've got the world on a string
EXTD=
EXTT0=
EXTT1=
EXTT2=
EXTT3=
EXTT4=
EXTT5=
EXTT6=
EXTT7=
EXTT8=
EXTT9=
EXTT10=
EXTT11=
EXTT12=
EXTT13=
EXTT14=
EXTT15=
EXTT16=
EXTT17=
EXTT18=
EXTT19=
PLAYORDER=
